<svg width="26" height="38" viewBox="0 0 26 38" fill="none" xmlns="http://www.w3.org/2000/svg">
<path d="M6.04899 15.4033C6.64469 17.1904 8.55095 20.7647 11.4103 20.7647C14.9846 20.7647 18.5588 19.8711 20.3459 15.4033" stroke="#0D986A" stroke-width="1.5"/>
<path d="M16.352 14.5098C16.4354 10.2596 14.6413 5.06865 13.1972 2C10.4388 7.51683 9.55298 11.5882 9.65232 14.5098M16.352 14.5098C16.2978 17.2728 15.4502 19.6382 13.1972 20.7647C11.6659 20.2543 9.78467 18.4025 9.65232 14.5098M16.352 14.5098C17.6833 14.5098 21.0607 13.4375 23.9201 9.14847C24.06 12.4248 23.541 19.335 20.3459 20.7647L18.5588 21.6583H7.83608L5.15531 20.7647C1.5577 17.9053 1.86919 11.8291 2.47463 9.14847C5.33402 13.4375 8.45117 14.5098 9.65232 14.5098" stroke="#0D986A" stroke-width="1.5"/>
<path d="M3.36826 26.126H23.0265M3.36826 26.126L6.04894 36.8487H20.3459L23.0265 26.126M3.36826 26.126C1.58114 25.5303 -0.920819 23.8027 3.36826 21.6582H23.0265C24.5158 22.2539 26.6007 23.9815 23.0265 26.126" stroke="#0D986A" stroke-width="1.5"/>
<path d="M13.1972 11.8291V20.7647" stroke="#0D986A" stroke-width="1.5"/>
</svg>
