<svg width="33" height="41" viewBox="0 0 33 41" fill="none" xmlns="http://www.w3.org/2000/svg">
<path d="M7.36818 29.4678H27.0265M7.36818 29.4678L10.0489 40.1905H24.3458L27.0265 29.4678M7.36818 29.4678C5.58106 28.8721 3.0791 27.1445 7.36818 25H27.0265C28.5157 25.5957 30.6006 27.3233 27.0265 29.4678" stroke="#435B71"/>
<path d="M10.1476 25C8.11479 19.48 3.20222 16.8733 1.00003 16.26C5.47216 16.26 11.806 21.4267 13.5 22.5C13.5 19.556 5.9126 11.8133 3.03282 9.82C8.31806 10.556 13.4754 17.64 15 19.48C15.8131 16.904 11.8416 5.68 10.1476 2C15.4328 4.944 17.3306 16.9733 17.5 20.5C18.7197 16.084 24.2077 8.28667 26.9181 7.06C22.8525 10.004 20 19.0867 20 22C22.0328 19.424 29.4591 16.26 32 16.26C26.7148 17.364 24.3771 22.5467 23.8689 25H10.1476Z" stroke="#435B71" stroke-linecap="square"/>
</svg>
