<svg width="33" height="39" viewBox="0 0 33 39" fill="none" xmlns="http://www.w3.org/2000/svg">
<path d="M7.36823 27.4678H27.0265M7.36823 27.4678L10.0489 38.1905H24.3458L27.0265 27.4678M7.36823 27.4678C5.58112 26.8721 3.07915 25.1445 7.36823 23H27.0265C28.5158 23.5957 30.6007 25.3233 27.0265 27.4678" stroke="#435B71"/>
<path fill-rule="evenodd" clip-rule="evenodd" d="M10.1503 2.67963L10.1093 2.80658C9.92322 3.39143 9.79956 3.73286 9.67843 3.97337C9.38656 3.81997 9.09567 3.66474 8.80576 3.50767C8.28566 3.23702 7.87435 3.05684 7.48961 2.95183C7.01959 2.82202 6.60806 2.81277 6.24663 2.97988C6.05635 3.06786 5.89356 3.20053 5.75574 3.36948C5.41788 3.78262 5.23684 4.34875 5.06418 5.25814C5.04182 5.37234 4.9896 5.66435 4.95871 5.8399L4.93463 5.97403L4.8918 6.19472L4.86754 6.18954C4.59468 6.12847 4.24379 6.00508 3.65095 5.77217L3.53577 5.72702C2.64411 5.37397 2.40433 5.28394 2.05849 5.19511C1.77652 5.12322 1.5503 5.09799 1.33589 5.13972C1.13792 5.17272 0.960137 5.2804 0.839181 5.44057C0.718225 5.60074 0.663307 5.8012 0.685741 6.00065C0.772513 6.99356 1.03191 7.9637 1.45227 8.86742C3.37117 13.0176 6.95609 14.8122 10.8789 12.9985C14.8016 11.1848 15.7565 7.29112 13.8376 3.1409C13.4118 2.21988 12.8392 1.39539 12.1489 0.700497C12.012 0.553955 11.8239 0.465783 11.6236 0.454287C11.4234 0.442792 11.2264 0.508854 11.0736 0.638761C10.9045 0.775677 10.7816 0.965065 10.6616 1.22558C10.5136 1.54408 10.4367 1.77372 10.1498 2.6785L10.1503 2.67963ZM2.57821 8.34682C2.29709 7.73882 2.10164 7.10623 1.99516 6.46804C2.20946 6.53842 2.49579 6.64929 3.0798 6.88083L3.19662 6.92658C3.84979 7.18354 4.23914 7.31921 4.59519 7.40058C5.28866 7.55554 5.82447 7.4759 6.01031 6.84332C6.06044 6.67391 6.1019 6.47981 6.15378 6.19889C6.15818 6.18182 6.16828 6.12385 6.18174 6.04656L6.28256 5.49019C6.41732 4.78556 6.55547 4.35132 6.71519 4.15585C6.72878 4.1354 6.74608 4.11767 6.76618 4.10357C6.81009 4.08327 6.94647 4.08854 7.16059 4.14671C7.44135 4.22189 7.78471 4.37336 8.23209 4.60793C8.1742 4.5773 9.22576 5.14615 9.45742 5.24814C10.0608 5.51856 10.4681 5.15804 10.7835 4.53386C10.9448 4.21466 11.0836 3.83206 11.2911 3.18127L11.3328 3.05267C11.5061 2.5024 11.5991 2.21886 11.6741 2.01746C12.0837 2.50729 12.4337 3.06024 12.7112 3.66036C14.3656 7.2386 13.5965 10.3753 10.3583 11.8726C7.12007 13.3698 4.23213 11.9239 2.57821 8.34682Z" fill="#435B71"/>
<path fill-rule="evenodd" clip-rule="evenodd" d="M28.5681 8.73061L28.445 8.78195C27.8797 9.02088 27.5398 9.14893 27.2784 9.21328C27.2051 8.89179 27.1339 8.56985 27.0647 8.24746C26.9322 7.67633 26.8017 7.24668 26.6313 6.88609C26.4243 6.4446 26.1637 6.12591 25.8018 5.95997C25.6112 5.87261 25.4046 5.83519 25.1866 5.84034C24.653 5.85227 24.1052 6.08283 23.302 6.54294C23.2007 6.60021 22.9449 6.7504 22.7914 6.84107L22.6739 6.90999L22.4784 7.02095L22.4665 6.99915C22.3355 6.75213 22.2011 6.40532 21.9926 5.80346L21.952 5.6866C21.6405 4.7796 21.553 4.53888 21.3956 4.21838C21.2669 3.9574 21.1389 3.76912 20.9678 3.63336C20.814 3.50441 20.6166 3.43935 20.4163 3.4516C20.2159 3.46384 20.0279 3.55246 19.891 3.69919C19.193 4.41071 18.6246 5.23859 18.2113 6.14556C16.3059 10.302 17.2734 14.1925 21.202 15.9935C25.1306 17.7946 28.7097 15.9884 30.6152 11.832C31.038 10.9096 31.2922 9.93848 31.3713 8.96222C31.3936 8.76288 31.3382 8.56262 31.2168 8.403C31.0953 8.24339 30.917 8.13668 30.719 8.10504C30.505 8.06565 30.2812 8.09541 30.0052 8.17358C29.6671 8.26827 29.4426 8.35912 28.5686 8.72948L28.5681 8.73061ZM19.339 6.6625C19.6181 6.05359 19.9716 5.49378 20.3873 4.99793C20.4732 5.20651 20.5751 5.49614 20.7789 6.09039L20.8201 6.20889C21.0496 6.87221 21.1997 7.25624 21.3693 7.57966C21.7025 8.20728 22.1114 8.56258 22.7128 8.29246C22.8742 8.2204 23.0486 8.12569 23.2957 7.98246C23.3116 7.9747 23.3622 7.94468 23.4297 7.90466L23.9179 7.6195C24.5409 7.26373 24.9606 7.08634 25.213 7.08059C25.2374 7.07762 25.2621 7.07923 25.2859 7.08534C25.3298 7.1055 25.4145 7.21254 25.5095 7.41304C25.635 7.67523 25.7431 8.03459 25.8558 8.52701C25.8414 8.46311 26.093 9.63191 26.1661 9.87423C26.353 10.5085 26.8917 10.5835 27.5711 10.4173C27.9184 10.3323 28.2994 10.189 28.9287 9.92348L29.0535 9.87152C29.5843 9.64542 29.8602 9.53174 30.062 9.45776C29.9562 10.0875 29.7636 10.7129 29.4881 11.3139C27.8452 14.8975 24.962 16.3527 21.7189 14.8659C18.4759 13.3792 17.6966 10.245 19.339 6.6625Z" fill="#435B71"/>
<path d="M10.5001 13C12.0001 15.1667 15.0001 20.3 15.0001 23.5" stroke="#435B71"/>
<path d="M21.5 15.5C20.3333 17.3333 17.8 21.4 17 23" stroke="#435B71"/>
</svg>
